<svg xmlns="http://www.w3.org/2000/svg" viewBox="0 0 144.48 150.92"><defs><style>.cls-1{fill:#fff;}.cls-2,.cls-5,.cls-9{fill:none;}.cls-2,.cls-5,.cls-8{stroke:#453028;stroke-linecap:round;stroke-linejoin:round;}.cls-2{stroke-width:1.92px;}.cls-3{font-size:12.03px;}.cls-3,.cls-6,.cls-7,.cls-8{fill:#453028;}.cls-3,.cls-6{font-family:Oswald-Bold, Oswald Bold;font-weight:700;}.cls-4{letter-spacing:-0.06em;}.cls-5{stroke-width:2.28px;}.cls-6{font-size:20.36px;}.cls-8{stroke-width:1.02px;}.cls-10{font-size:15.5px;fill:#f4f1ea;font-family:HamburgerHeaven;}</style></defs><title>Asset 2</title><g id="Layer_2" data-name="Layer 2"><g id="Layer_1-2" data-name="Layer 1"><path class="cls-1" d="M46.67,117a1.88,1.88,0,1,1-1.88-1.87A1.88,1.88,0,0,1,46.67,117Z"/><line class="cls-2" x1="27.5" y1="66.79" x2="1.96" y2="66.79"/><line class="cls-2" x1="26.5" y1="83.32" x2="0.96" y2="83.32"/><text class="cls-3" transform="translate(6.08 78.06)">ES<tspan class="cls-4" x="11.85" y="0">T</tspan><tspan x="17.11" y="0">.</tspan></text><circle class="cls-5" cx="71.93" cy="79.65" r="44.42"/><path class="cls-5" d="M13.62,38.1A71.6,71.6,0,0,1,131.3,39.62"/><text class="cls-6" transform="translate(43 38.44) rotate(-29.38)">F</text><text class="cls-6" transform="matrix(0.95, -0.32, 0.32, 0.95, 50.49, 34.04)">o</text><text class="cls-6" transform="translate(60.42 30.58) rotate(-6.92)">o</text><text class="cls-6" transform="translate(70.84 29.22) rotate(5.29)">d</text><text class="cls-6" transform="translate(81.59 30.16) rotate(17.43)">o</text><text class="cls-6" transform="matrix(0.87, 0.49, -0.49, 0.87, 91.66, 33.26)">o</text><path class="cls-7" d="M90.73,72.82,95,68.91l9.83-9a1.2,1.2,0,0,0,.07-1.68,1.18,1.18,0,0,0-1.68-.07l-8.95,8.23L92,63.85l9-8.23a1.19,1.19,0,0,0-1.61-1.75l-9,8.23L88,59.59,97,51.36a1.19,1.19,0,0,0-1.61-1.75l-9.83,9L81.3,62.56a7,7,0,0,0-1.71,7.81L43.76,102.05a3.48,3.48,0,0,0-.24,5h0a3.49,3.49,0,0,0,5,.13L82.8,73.87A7,7,0,0,0,90.73,72.82Z"/><path class="cls-8" d="M46.05,49.56,96.44,105.9a2.34,2.34,0,0,1-.56,3.21h0a2.33,2.33,0,0,1-3.27.07l-29-32.11s-19-2.58-19-26.8C44.61,49.53,45.61,49,46.05,49.56Z"/><path class="cls-9" d="M71.93,31.16A48.45,48.45,0,0,0,28.67,101.5l4.56-1.74-4.56,1.74a48.45,48.45,0,0,0,86.64-.24l-3.92-1.5,3.92,1.5a48.46,48.46,0,0,0-43.38-70.1Z"/><path class="cls-7" d="M118,99.76A51.47,51.47,0,0,1,26,100l-7.7,11.5-13.5-3.39a74.08,74.08,0,0,0,134.43-.27l-14.41,3.66Z"/><text class="cls-10" transform="translate(23.99 124.99) rotate(42.38)">F</text><text class="cls-10" transform="translate(30.24 130.75) rotate(34.21)">O</text><text class="cls-10" transform="translate(40.11 137.35) rotate(24.21)">O</text><text class="cls-10" transform="matrix(0.97, 0.24, -0.24, 0.97, 50.98, 142.1)">D</text><text class="cls-10" transform="matrix(0.99, 0.13, -0.13, 0.99, 61.79, 144.56)"> </text><text class="cls-10" transform="translate(65.75 145.2) rotate(1.24)">&amp;</text><text class="cls-10" transform="translate(75.84 145.22) rotate(-4.89)"> </text><text class="cls-10" transform="translate(79.91 145.03) rotate(-11.56)">D</text><text class="cls-10" transform="translate(91.01 142.59) rotate(-20.63)">R</text><text class="cls-10" transform="matrix(0.9, -0.44, 0.44, 0.9, 99.4, 139.27)">I</text><text class="cls-10" transform="matrix(0.84, -0.54, 0.54, 0.84, 103.46, 137.41)">N</text><text class="cls-10" transform="translate(112.78 131.22) rotate(-41.3)">K</text><text class="cls-10" transform="matrix(0.7, -0.72, 0.72, 0.7, 119.31, 125.3)"> </text><polygon class="cls-7" points="70.58 42.37 72.98 49.74 80.73 49.74 74.46 54.3 76.85 61.67 70.58 57.11 64.31 61.67 66.71 54.3 60.44 49.74 68.19 49.74 70.58 42.37"/><polygon class="cls-7" points="100.01 78.73 101.49 83.28 106.27 83.28 102.4 86.09 103.88 90.64 100.01 87.82 96.14 90.64 97.62 86.09 93.75 83.28 98.53 83.28 100.01 78.73"/><polygon class="cls-7" points="70.58 102.21 72.06 106.76 76.84 106.76 72.97 109.57 74.45 114.12 70.58 111.31 66.71 114.12 68.19 109.57 64.32 106.76 69.1 106.76 70.58 102.21"/><polygon class="cls-7" points="43.68 78.73 45.16 83.28 49.94 83.28 46.07 86.09 47.55 90.64 43.68 87.82 39.81 90.64 41.29 86.09 37.42 83.28 42.21 83.28 43.68 78.73"/><path class="cls-1" d="M118.23,120.71a1.88,1.88,0,1,1-1.88-1.87A1.88,1.88,0,0,1,118.23,120.71Z"/><line class="cls-2" x1="143.53" y1="70.48" x2="116.14" y2="70.48"/><line class="cls-2" x1="143.53" y1="87.02" x2="116.14" y2="87.02"/><text class="cls-3" transform="translate(119.34 83.76)">2019</text></g></g></svg>